<svg width="16" height="16" viewBox="0 0 16 16" fill="none" xmlns="http://www.w3.org/2000/svg">
<path d="M4.66663 7.33337H5.99996V8.66671H4.66663V7.33337ZM4.66663 10H5.99996V11.3334H4.66663V10ZM7.33329 7.33337H8.66663V8.66671H7.33329V7.33337ZM7.33329 10H8.66663V11.3334H7.33329V10ZM9.99996 7.33337H11.3333V8.66671H9.99996V7.33337ZM9.99996 10H11.3333V11.3334H9.99996V10Z" fill="white"/>
<path d="M3.33333 14.6667H12.6667C13.402 14.6667 14 14.0687 14 13.3334V4.00004C14 3.26471 13.402 2.66671 12.6667 2.66671H11.3333V1.33337H10V2.66671H6V1.33337H4.66667V2.66671H3.33333C2.598 2.66671 2 3.26471 2 4.00004V13.3334C2 14.0687 2.598 14.6667 3.33333 14.6667ZM12.6667 5.33337L12.6673 13.3334H3.33333V5.33337H12.6667Z" fill="white"/>
</svg>
