<svg width="17" height="17" viewBox="0 0 17 17" fill="none" xmlns="http://www.w3.org/2000/svg">
<path d="M1.5 9.375H6.75C6.98206 9.375 7.20462 9.28281 7.36872 9.11872C7.53281 8.95462 7.625 8.73206 7.625 8.5V1.5C7.625 1.26794 7.53281 1.04538 7.36872 0.881282C7.20462 0.717187 6.98206 0.625 6.75 0.625H1.5C1.26794 0.625 1.04538 0.717187 0.881282 0.881282C0.717187 1.04538 0.625 1.26794 0.625 1.5V8.5C0.625 8.73206 0.717187 8.95462 0.881282 9.11872C1.04538 9.28281 1.26794 9.375 1.5 9.375ZM0.625 15.5C0.625 15.7321 0.717187 15.9546 0.881282 16.1187C1.04538 16.2828 1.26794 16.375 1.5 16.375H6.75C6.98206 16.375 7.20462 16.2828 7.36872 16.1187C7.53281 15.9546 7.625 15.7321 7.625 15.5V12C7.625 11.7679 7.53281 11.5454 7.36872 11.3813C7.20462 11.2172 6.98206 11.125 6.75 11.125H1.5C1.26794 11.125 1.04538 11.2172 0.881282 11.3813C0.717187 11.5454 0.625 11.7679 0.625 12V15.5ZM9.375 15.5C9.375 15.7321 9.46719 15.9546 9.63128 16.1187C9.79538 16.2828 10.0179 16.375 10.25 16.375H15.5C15.7321 16.375 15.9546 16.2828 16.1187 16.1187C16.2828 15.9546 16.375 15.7321 16.375 15.5V9.375C16.375 9.14294 16.2828 8.92038 16.1187 8.75628C15.9546 8.59219 15.7321 8.5 15.5 8.5H10.25C10.0179 8.5 9.79538 8.59219 9.63128 8.75628C9.46719 8.92038 9.375 9.14294 9.375 9.375V15.5ZM10.25 6.75H15.5C15.7321 6.75 15.9546 6.65781 16.1187 6.49372C16.2828 6.32962 16.375 6.10706 16.375 5.875V1.5C16.375 1.26794 16.2828 1.04538 16.1187 0.881282C15.9546 0.717187 15.7321 0.625 15.5 0.625H10.25C10.0179 0.625 9.79538 0.717187 9.63128 0.881282C9.46719 1.04538 9.375 1.26794 9.375 1.5V5.875C9.375 6.10706 9.46719 6.32962 9.63128 6.49372C9.79538 6.65781 10.0179 6.75 10.25 6.75Z" fill="black"/>
</svg>
