<svg width="15" height="16" viewBox="0 0 15 16" fill="none" xmlns="http://www.w3.org/2000/svg">
<g id="Group 2">
<g id="Group">
<path id="Vector" d="M7.80062 3.3053C7.78104 2.93952 7.40722 3.00175 7.04248 3.00175C7.31191 3.07351 7.56679 3.17335 7.80062 3.3053Z" fill="#222222"/>
<path id="Vector_2" d="M3.9017 2.38861C2.48575 2.38861 1.83401 4.18083 2.96593 5.08223C3.35179 4.05189 4.11994 3.31207 5.12696 3.02006C4.85149 2.63923 4.40643 2.38861 3.9017 2.38861Z" fill="#222222"/>
<path id="Vector_3" d="M0.976416 4.80169C1.03412 4.98686 1.10888 5.16449 1.1977 5.33279L0.732578 5.79817C0.607671 5.92308 0.607671 6.12582 0.732578 6.25099L1.55242 7.07109C1.61213 7.1308 1.69394 7.1644 1.7792 7.1644C1.86353 7.1644 1.94479 7.1308 2.00553 7.07109L2.47013 6.60571C2.53986 6.64261 2.61714 6.66522 2.68935 6.69705C2.68935 6.69175 2.68883 6.68626 2.68883 6.68096C2.68883 6.30065 2.73252 5.94188 2.81028 5.605C2.24933 5.24397 1.87503 4.61731 1.87503 3.90182C1.87503 2.78418 2.78418 1.87477 3.90156 1.87477C4.65817 1.87477 5.31143 2.29599 5.66015 2.91138C6.03245 2.86521 6.38216 2.86521 6.80312 2.94476C6.74897 2.78095 6.68525 2.62063 6.60545 2.47036L7.07057 2.00475C7.13125 1.94479 7.16485 1.86324 7.16485 1.77846C7.16485 1.69365 7.13125 1.61213 7.07057 1.55217L6.25118 0.732578C6.1885 0.669866 6.10669 0.638753 6.02492 0.638753C5.94311 0.638753 5.86134 0.669866 5.79911 0.732578L5.3325 1.19819C5.16394 1.10888 4.98682 1.03412 4.80121 0.977676V0.319861C4.80121 0.143259 4.65869 0 4.48157 0H3.32206C3.14594 0 3.00191 0.143259 3.00191 0.319861V0.977644C2.81678 1.03409 2.63963 1.10885 2.47055 1.19815L2.00553 0.733063C1.94278 0.670351 1.86101 0.639237 1.7792 0.639237C1.69743 0.639237 1.61517 0.670351 1.55294 0.732805L0.732578 1.55239C0.672871 1.61262 0.639269 1.69387 0.639269 1.77894C0.639269 1.86398 0.672871 1.94527 0.732578 2.00524L1.1977 2.47059C1.10885 2.63918 1.03412 2.81655 0.97745 3.00168H0.320152C0.143033 3.00168 0 3.14517 0 3.32203V4.48157C0 4.65792 0.143033 4.80169 0.320152 4.80169H0.976416Z" fill="#222222"/>
<path id="Vector_4" d="M11.0209 11.0063C11.5337 10.7251 11.8859 10.1867 11.8859 9.56201C11.8859 8.65034 11.1439 7.90881 10.2322 7.90881C9.91162 7.90881 9.61454 8.00464 9.36069 8.16318C9.20867 8.76827 8.96933 9.34706 8.65625 9.84979C9.54378 10.0166 10.3581 10.4208 11.0209 11.0063Z" fill="#222222"/>
<path id="Vector_5" d="M14.4427 8.93636C14.4427 8.74545 14.2876 8.59088 14.0974 8.59088H13.388C13.3268 8.39092 13.2455 8.19926 13.1492 8.01739L13.6514 7.51518C13.7167 7.45043 13.7527 7.36265 13.7527 7.27108C13.7527 7.17949 13.7166 7.09167 13.6514 7.02673L12.7673 6.14239C12.7001 6.07487 12.6113 6.04101 12.523 6.04101C12.4347 6.04101 12.3464 6.07487 12.2792 6.14239L11.7759 6.64487C11.5943 6.54852 11.4031 6.46778 11.2024 6.40678V5.69734C11.2024 5.50668 11.0484 5.35211 10.8577 5.35211H9.60689C9.52308 5.35211 9.44932 5.38571 9.38916 5.4354C9.49449 5.81972 9.55219 6.23645 9.55219 6.68099C9.55219 6.96321 9.53016 7.24976 9.489 7.53469C9.72178 7.44888 9.96963 7.39499 10.2321 7.39499C11.4272 7.39499 12.3996 8.36714 12.3996 9.56197C12.3996 10.3257 12.0007 10.995 11.4021 11.3811C11.8376 11.8587 12.1838 12.4254 12.4091 13.0604C12.4462 13.0732 12.4849 13.0825 12.5235 13.0825C12.6118 13.0825 12.7001 13.0489 12.7679 12.9813L13.6525 12.097C13.7172 12.0323 13.7528 11.9445 13.7528 11.8529C13.7528 11.7613 13.7172 11.6736 13.6525 11.6086L13.1492 11.1061C13.2456 10.9245 13.3268 10.7328 13.3881 10.5326H14.0975C14.1888 10.5326 14.2776 10.4965 14.3418 10.4312C14.4066 10.3667 14.4432 10.2787 14.4432 10.1871L14.4427 8.93636Z" fill="#222222"/>
<path id="Vector_6" d="M11.7046 13.3729C11.1682 11.7947 9.75086 10.7092 8.11466 10.5615C7.56676 11.1417 6.88839 11.5098 6.12018 11.5098C5.35255 11.5098 4.67367 11.1417 4.12628 10.5615C2.48911 10.7092 1.07168 11.7947 0.53528 13.3732L0.238778 14.246C0.153967 14.4971 0.19458 14.7738 0.349147 14.9893C0.503681 15.2048 0.752559 15.3328 1.01746 15.3328H11.2224C11.4878 15.3328 11.7367 15.2048 11.8913 14.9893C12.0453 14.7738 12.0865 14.4971 12.0011 14.246L11.7046 13.3729Z" fill="#222222"/>
<path id="Vector_7" d="M3.45947 6.68104C3.45947 8.63862 4.65113 10.7392 6.1202 10.7392C7.58985 10.7392 8.78144 8.63862 8.78144 6.68104C8.78147 2.6232 3.45947 2.61516 3.45947 6.68104Z" fill="#222222"/>
</g>
</g>
</svg>
