<svg width="15" height="15" viewBox="0 0 15 15" fill="none" xmlns="http://www.w3.org/2000/svg">
<g id="group" clip-path="url(#clip0_904_278)">
<g id="Group">
<g id="Group_2">
<g id="Group_3">
<path id="Vector" d="M7.49991 2.63422C8.2223 2.63422 8.80792 2.0486 8.80792 1.3262C8.80792 0.603806 8.2223 0.0181885 7.49991 0.0181885C6.77751 0.0181885 6.19189 0.603806 6.19189 1.3262C6.19189 2.0486 6.77751 2.63422 7.49991 2.63422Z" fill="black"/>
<path id="Vector_2" d="M8.00675 2.94862C8.00057 2.94845 7.9944 2.94828 7.98822 2.94818H7.01159C6.01005 2.96701 5.21343 3.7942 5.23226 4.79574C5.23236 4.80191 5.23253 4.80809 5.23269 4.81426V5.0933C5.23269 5.23283 5.285 5.38979 5.44196 5.38979H9.55781C9.71477 5.38979 9.76708 5.23283 9.76708 5.0933V4.81426C9.79616 3.81299 9.00802 2.97769 8.00675 2.94862Z" fill="black"/>
<path id="Vector_3" d="M1.83189 8.70333C1.97636 8.70333 2.0935 8.58619 2.0935 8.44172C2.08986 6.80019 2.83459 5.24652 4.11654 4.22121C4.22606 4.14256 4.25113 3.99001 4.17248 3.88049C4.16604 3.87151 4.159 3.86299 4.15142 3.85498C4.05952 3.74499 3.89619 3.72943 3.78519 3.8201C2.38492 4.94555 1.57038 6.6452 1.57031 8.44172C1.57031 8.58623 1.68741 8.70333 1.83189 8.70333Z" fill="black"/>
<path id="Vector_4" d="M9.22654 13.5691C8.11056 13.9352 6.90683 13.9352 5.79086 13.5691C5.65339 13.5246 5.50591 13.5999 5.46138 13.7373C5.46072 13.7394 5.46008 13.7414 5.45948 13.7434C5.42386 13.8823 5.49927 14.0256 5.63386 14.0748C6.23653 14.2707 6.86624 14.3708 7.49995 14.3713C8.14655 14.372 8.78884 14.2659 9.40092 14.0574C9.52927 13.9911 9.57961 13.8333 9.51332 13.7049C9.45924 13.6002 9.3418 13.5446 9.22654 13.5691Z" fill="black"/>
<path id="Vector_5" d="M10.6187 4.02718C10.6198 4.02794 10.6209 4.02871 10.6221 4.02948C12.0521 5.04444 12.9033 6.68816 12.9067 8.44182C12.9067 8.58629 13.0239 8.70342 13.1683 8.70342C13.3128 8.70342 13.43 8.58629 13.43 8.44182C13.4251 6.51492 12.4897 4.70906 10.9186 3.59349C10.7966 3.51982 10.6387 3.54989 10.5523 3.66325C10.4701 3.78209 10.4999 3.94503 10.6187 4.02718Z" fill="black"/>
<path id="Vector_6" d="M2.26797 12.2262C2.99037 12.2262 3.57599 11.6406 3.57599 10.9182C3.57599 10.1958 2.99037 9.61017 2.26797 9.61017C1.54558 9.61017 0.959961 10.1958 0.959961 10.9182C0.959961 11.6406 1.54558 12.2262 2.26797 12.2262Z" fill="black"/>
<path id="Vector_7" d="M2.77482 12.5406C2.76864 12.5404 2.76247 12.5403 2.75629 12.5402H1.77965C0.778113 12.559 -0.0185324 13.3862 0.000328094 14.3877C0.000428238 14.3939 0.000595145 14.4001 0.000762051 14.4062V14.6853C0.000762051 14.8248 0.0530706 14.9818 0.21003 14.9818H4.32588C4.48284 14.9818 4.53515 14.8248 4.53515 14.6853V14.4062C4.56426 13.4049 3.77612 12.5697 2.77482 12.5406Z" fill="black"/>
<path id="Vector_8" d="M12.7323 12.2262C13.4547 12.2262 14.0403 11.6406 14.0403 10.9182C14.0403 10.1958 13.4547 9.61017 12.7323 9.61017C12.0099 9.61017 11.4243 10.1958 11.4243 10.9182C11.4243 11.6406 12.0099 12.2262 12.7323 12.2262Z" fill="black"/>
<path id="Vector_9" d="M13.2392 12.5406C13.233 12.5404 13.2268 12.5403 13.2206 12.5402H12.244C11.2425 12.559 10.4459 13.3862 10.4647 14.3877C10.4648 14.3939 10.4649 14.4001 10.4651 14.4062V14.6853C10.4651 14.8248 10.5174 14.9818 10.6744 14.9818H14.7903C14.9472 14.9818 14.9995 14.8248 14.9995 14.6853V14.4062C15.0286 13.4049 14.2405 12.5697 13.2392 12.5406Z" fill="black"/>
</g>
</g>
</g>
</g>
<defs>
<clipPath id="clip0_904_278">
<rect width="15" height="15" fill="white"/>
</clipPath>
</defs>
</svg>
