<svg width="27" height="21" viewBox="0 0 27 21" fill="none" xmlns="http://www.w3.org/2000/svg">
<g id="Group">
<g id="Group_2">
<path id="Vector" d="M3.22119 6.17271C3.5436 6.40022 4.51547 7.07593 6.13685 8.19949C7.75827 9.32305 9.00039 10.1882 9.86327 10.7949C9.95807 10.8614 10.1595 11.0059 10.4676 11.2288C10.7758 11.4518 11.0318 11.6319 11.2356 11.7694C11.4395 11.9068 11.6859 12.0609 11.9753 12.2315C12.2645 12.402 12.5372 12.5302 12.7932 12.6151C13.0492 12.7007 13.2863 12.7431 13.5043 12.7431H13.5186H13.5329C13.751 12.7431 13.9881 12.7007 14.2442 12.6151C14.5001 12.5302 14.773 12.4019 15.062 12.2315C15.3511 12.0607 15.5976 11.9067 15.8015 11.7694C16.0054 11.6319 16.2612 11.4518 16.5695 11.2288C16.8776 11.0057 17.0792 10.8614 17.174 10.7949C18.0462 10.1882 20.2652 8.64729 23.8303 6.17241C24.5224 5.68904 25.1007 5.10579 25.5652 4.42305C26.0301 3.74062 26.2623 3.02471 26.2623 2.27571C26.2623 1.64982 26.037 1.11405 25.5865 0.668437C25.1361 0.222729 24.6027 0 23.9866 0H3.05047C2.32041 0 1.75858 0.246492 1.36508 0.739475C0.971628 1.23256 0.774902 1.84889 0.774902 2.58841C0.774902 3.18576 1.03574 3.83308 1.55717 4.52996C2.07855 5.22689 2.6334 5.77452 3.22119 6.17271Z" fill="white"/>
<path id="Vector_2" d="M24.8398 7.69437C21.7301 9.79917 19.3688 11.4349 17.7571 12.6013C17.2166 12.9994 16.7782 13.3102 16.4415 13.5329C16.1048 13.7557 15.657 13.9833 15.0974 14.2154C14.5381 14.448 14.0168 14.5639 13.5331 14.5639H13.5186H13.5043C13.0208 14.5639 12.4992 14.448 11.9399 14.2154C11.3805 13.9833 10.9324 13.7557 10.5958 13.5329C10.2593 13.3102 9.82072 12.9994 9.28031 12.6013C8.00018 11.6627 5.64396 10.0268 2.21156 7.69437C1.67095 7.3343 1.19211 6.92157 0.774902 6.45703V17.7497C0.774902 18.3759 0.997632 18.9113 1.44334 19.357C1.88895 19.8028 2.42477 20.0256 3.05062 20.0256H23.9868C24.6125 20.0256 25.1482 19.8028 25.5939 19.357C26.0397 18.9112 26.2623 18.3759 26.2623 17.7497V6.45703C25.8545 6.91196 25.3806 7.32468 24.8398 7.69437Z" fill="white"/>
</g>
</g>
</svg>
