<svg width="15" height="15" viewBox="0 0 15 15" fill="none" xmlns="http://www.w3.org/2000/svg">
<g id="power-button-off" clip-path="url(#clip0_904_168)">
<g id="Group">
<g id="Group_2">
<path id="Vector" d="M7.4581 8.03121C7.14732 8.03121 6.8783 7.9179 6.65138 7.69064C6.4244 7.46369 6.31063 7.19464 6.31063 6.88399V1.14737C6.31063 0.836568 6.42428 0.567706 6.65138 0.340755C6.87827 0.113554 7.14732 0 7.4581 0C7.7689 0 8.03776 0.113679 8.26484 0.340755C8.49191 0.567706 8.60547 0.836694 8.60547 1.14737V6.88402C8.60547 7.19467 8.49191 7.46369 8.26484 7.69067C8.03776 7.9179 7.76881 8.03121 7.4581 8.03121Z" fill="#222222"/>
<path id="Vector_2" d="M1.29548 4.95678C1.7766 3.99479 2.45325 3.18805 3.32564 2.53677C3.5766 2.34558 3.86044 2.27086 4.17715 2.31264C4.49389 2.35449 4.74485 2.50387 4.93008 2.76074C5.12131 3.01167 5.19436 3.294 5.14965 3.60773C5.10498 3.92161 4.95692 4.17399 4.70596 4.36521C4.12061 4.80737 3.66768 5.34824 3.34815 5.98762C3.02843 6.62693 2.86875 7.30823 2.86875 8.03111C2.86875 8.65276 2.98975 9.2457 3.2317 9.81049C3.47363 10.3752 3.80089 10.8636 4.21325 11.276C4.62562 11.6882 5.1139 12.0153 5.67868 12.2574C6.24338 12.4994 6.83645 12.6206 7.4579 12.6206C8.07926 12.6206 8.67236 12.4994 9.23706 12.2574C9.80181 12.0153 10.2902 11.6882 10.7026 11.276C11.1148 10.8636 11.442 10.3752 11.684 9.81049C11.926 9.2457 12.047 8.65276 12.047 8.03111C12.047 7.30823 11.8872 6.62703 11.5675 5.98762C11.2478 5.3483 10.7952 4.80747 10.2096 4.36521C9.95866 4.17386 9.81082 3.92152 9.76593 3.60773C9.72113 3.29413 9.79428 3.01167 9.98553 2.76074C10.1708 2.50387 10.4202 2.35446 10.7339 2.31264C11.0477 2.27083 11.3331 2.34558 11.59 2.53677C12.4625 3.18805 13.1391 3.99479 13.6203 4.95678C14.1013 5.91889 14.3418 6.94367 14.3418 8.03115C14.3418 8.96347 14.1595 9.85372 13.7951 10.7022C13.4305 11.5508 12.9406 12.2826 12.325 12.8982C11.7096 13.5137 10.9776 14.0038 10.129 14.368C9.28044 14.7326 8.3901 14.915 7.45793 14.915C6.52574 14.915 5.63542 14.7326 4.78686 14.368C3.93824 14.0037 3.20624 13.5136 2.59075 12.8982C1.97536 12.2828 1.48545 11.5508 1.12093 10.7022C0.756408 9.85372 0.574288 8.96325 0.574288 8.03115C0.574257 6.94364 0.814393 5.91886 1.29548 4.95678Z" fill="#222222"/>
</g>
</g>
</g>
<defs>
<clipPath id="clip0_904_168">
<rect width="14.915" height="14.915" fill="white" transform="matrix(-1 0 0 1 14.915 0)"/>
</clipPath>
</defs>
</svg>
