<svg width="1440" height="6" viewBox="0 0 1440 6" fill="none" xmlns="http://www.w3.org/2000/svg">
<rect width="44.4994" height="6" fill="#145A9B"/>
<rect x="42.7192" width="44.4994" height="6" fill="#238AC5"/>
<rect x="87.2188" width="109.468" height="6" fill="#1E3956"/>
<rect x="193.127" width="19.5797" height="6" fill="#2F5031"/>
<rect x="212.707" width="107.689" height="6" fill="#406728"/>
<rect x="307.046" width="40.0494" height="6" fill="#7DAA29"/>
<rect x="347.095" width="109.468" height="6" fill="#DBAC28"/>
<rect x="453.004" width="58.7392" height="6" fill="#C1981F"/>
<rect x="511.743" width="58.7392" height="6" fill="#CC564C"/>
<rect x="567.812" width="78.3189" height="6" fill="#CA473F"/>
<rect x="641.681" width="78.3189" height="6" fill="#3C315B"/>
<rect x="720" width="44.4994" height="6" fill="#145A9B"/>
<rect x="762.719" width="44.4994" height="6" fill="#238AC5"/>
<rect x="807.219" width="109.468" height="6" fill="#1E3956"/>
<rect x="913.127" width="19.5797" height="6" fill="#2F5031"/>
<rect x="932.707" width="107.689" height="6" fill="#406728"/>
<rect x="1027.05" width="40.0494" height="6" fill="#7DAA29"/>
<rect x="1067.1" width="109.468" height="6" fill="#DBAC28"/>
<rect x="1173" width="58.7392" height="6" fill="#C1981F"/>
<rect x="1231.74" width="58.7392" height="6" fill="#CC564C"/>
<rect x="1287.81" width="78.3189" height="6" fill="#CA473F"/>
<rect x="1361.68" width="78.3189" height="6" fill="#3C315B"/>
</svg>
